<svg xmlns="http://www.w3.org/2000/svg" width="186" height="218" viewBox="0 0 186 218">
<circle cx="93" cy="82" r="66" fill="none" stroke="#3a3a44" stroke-width="1.4"/><path d="M109 23L110 18M124 29L126 25M136 39L140 35M146 51L150 49M152 66L157 65M152 98L157 99M146 112L150 115M136 125L140 129M124 135L126 139M109 141L110 146M77 141L76 146M62 135L60 139M50 125L46 129M40 113L36 115M34 98L29 99M34 66L29 65M40 51L36 49M50 39L46 35M62 29L60 25M77 23L76 18" stroke="#3a3a44"/><path d="M93 21L93 16M154 82L159 82M93 143L93 148M32 82L27 82" stroke="#9a9aa6" stroke-width="1.6"/>
<path d="M93 49A33 33 0 0 1 93 115" fill="none" stroke="#e05fd8" stroke-width="3"/>
<line x1="93" y1="82" x2="93" y2="27" stroke="#5fd68a" stroke-width="2.8"/><polygon points="93,18 98,27 88,27" fill="#5fd68a"/>
<line x1="93" y1="82" x2="93" y2="137" stroke="#f9a825" stroke-width="2.4"/><polygon points="93,146 88,137 98,137" fill="#f9a825"/>
<text x="93" y="180" text-anchor="middle" font-family="ui-monospace,SFMono-Regular,Menlo,monospace" font-size="15" fill="#e05fd8">L = 12</text>
<text x="93" y="202" text-anchor="middle" font-family="-apple-system,BlinkMacSystemFont,Segoe UI,sans-serif" font-size="15" fill="#9a9aa6">perpendicular rests</text>
</svg>